{"title":"Solaris 2002 HDTV 1080 Legendado PT-BR","uid":15786968,"size":6979101211,"categoryP":"video","categoryS":"hd___movies","magnet":"?xt=urn:btih:ff807f2bc21aae074e09081a2ff0a04b5cc8ff74&amp;dn=Solaris+2002+HDTV+1080+Legendado+PT-BR&amp;tr=udp%3A%2F%2Ftracker.leechers-paradise.org%3A6969&amp;tr=udp%3A%2F%2Fzer0day.ch%3A1337&amp;tr=udp%3A%2F%2Fopen.demonii.com%3A1337&amp;tr=udp%3A%2F%2Ftracker.coppersurfer.tk%3A6969&amp;tr=udp%3A%2F%2Fexodus.desync.com%3A6969","seeders":8,"leechers":3,"uploader":null,"files":1,"time":1473335527,"description":"Audio: English\r\nLegendas/subtitles: Português, English (MKV track)\r\n\r\n=========================================\r\n\r\nA troubled psychologist is sent to investigate the crew of an isolated research station orbiting a bizarre planet. \r\n\r\n=========================================\r\n\r\nVideo\r\nID                             : 1\r\nFormat                         : AVC\r\nFormat/Info                    : Advanced Video Codec\r\nFormat profile                 :   \r\nFormat settings, CABAC         : Yes\r\nFormat settings, ReFrames      : 4 frames\r\nCodec ID                       : V_MPEG4/ISO/AVC\r\nDuration                       : 1h 35mn\r\nBit rate                       : 9 300 Kbps\r\nWidth                          : 1 920 pixels\r\nHeight                         : 816 pixels\r\nDisplay aspect ratio           : 2.35:1\r\nFrame rate mode                : Constant\r\nFrame rate                     : 23.976 fps\r\nColor space                    : YUV\r\nChroma subsampling             : 4:2:0\r\nBit depth                      : 8 bits\r\nScan type                      : Progressive\r\nBits/(Pixel*Frame)             : 0.248\r\nStream size                    : 6.07 GiB (93%)\r\n\r\n\r\nAudio\r\nID                             : 2\r\nFormat                         : AC-3\r\nFormat/Info                    : Audio Coding 3\r\nMode extension                 : CM (complete main)\r\nFormat settings, Endianness    : Big\r\nCodec ID                       : A_AC3\r\nDuration                       : 1h 35mn\r\nBit rate mode                  : Constant\r\nBit rate                       : 448 Kbps\r\nChannel(s)                     : 6 channels\r\nChannel positions              : Front: L C R, Side: L R, LFE\r\nSampling rate                  : 48.0 KHz\r\nBit depth                      : 16 bits\r\nCompression mode               : Lossy\r\nStream size                    : 306 MiB (5%)\r\nLanguage                       : English\r\nDefault                        : Yes\r\nForced                         : No\r\n\r\nText #1\r\nID                             : 3\r\nFormat                         : UTF-8\r\nCodec ID                       : S_TEXT/UTF8\r\nCodec ID/Info                  : UTF-8 Plain Text\r\nLanguage                       : Portuguese\r\nDefault                        : Yes\r\nForced                         : No\r\n\r\nText #2\r\nID                             : 4\r\nFormat                         : UTF-8\r\nCodec ID                       : S_TEXT/UTF8\r\nCodec ID/Info                  : UTF-8 Plain Text\r\nLanguage                       : English\r\nDefault                        : No\r\nForced                         : No","torrent":{"xt":"urn:btih:ff807f2bc21aae074e09081a2ff0a04b5cc8ff74","amp;dn":"Solaris+2002+HDTV+1080+Legendado+PT-BR","amp;tr":["udp%3A%2F%2Ftracker.leechers-paradise.org%3A6969","udp%3A%2F%2Fzer0day.ch%3A1337","udp%3A%2F%2Fopen.demonii.com%3A1337","udp%3A%2F%2Ftracker.coppersurfer.tk%3A6969","udp%3A%2F%2Fexodus.desync.com%3A6969"],"infoHash":"ff807f2bc21aae074e09081a2ff0a04b5cc8ff74","infoHashBuffer":{"type":"Buffer","data":[255,128,127,43,194,26,174,7,78,9,8,26,47,240,160,75,92,200,255,116]},"announce":[],"urlList":[]}}